# xmcd
# Track frame offsets:
# 150
# 14920
# 31270
# 48180
# 65500
# 84397
# 98715
# 115450
# 127512
# 147550
# 159602
# 179282
# 182740
#
# Disc length: 2606 seconds
# Revision: 0
# Processed by: cddbd v1.4PL0 Copyright (c) Steve Scherf et al.
# Submitted via: VisiTrax 2.9.5.180 - For more info visit www.synapsa.com
#
DISCID=ac0a2c0d
DTITLE=Lorraine Rawls - Out From The Ranch
DYEAR=1995
DGENRE=Cowboy
TTITLE0=Saturday Night
TTITLE1=My Love Is a Rider
TTITLE2=That Fog Along The Old San Joaquin
TTITLE3=Cowboy Jack
TTITLE4=Red River Valley
TTITLE5=I Ride An Old Paint
TTITLE6=Wagon Wheels
TTITLE7=April-I-Ness
TTITLE8=A Thousand Pretty Ponies
TTITLE9=Montana Cowgirl
TTITLE10=The Last Cowboy
TTITLE11=A Cowboy's Prayer
TTITLE12=I'll Fly Away
EXTD=
EXTT0=
EXTT1=
EXTT2=
EXTT3=
EXTT4=
EXTT5=
EXTT6=
EXTT7=
EXTT8=
EXTT9=
EXTT10=
EXTT11=
EXTT12=
PLAYORDER=
